/* XPM */
static char *b8433cf54a1d4d58d3d3fb3440177bd6bpMNupO6GmQQYN4G[] = {
/* columns rows colors chars-per-pixel */
"32 32 25 1 ",
"  c black",
". c gray1",
"X c #040404",
"o c #060606",
"O c #070707",
"+ c #090909",
"@ c gray4",
"# c #0C0C0C",
"$ c gray7",
"% c #191919",
"& c #232323",
"* c gray16",
"= c #505050",
"- c gray38",
"; c #888888",
": c gray",
"> c gray87",
", c gray93",
"< c #EEEEEE",
"1 c gray95",
"2 c #F8F8F8",
"3 c gray98",
"4 c #FBFBFB",
"5 c #FDFDFD",
"6 c white",
/* pixels */
"    @*  55555555        55555555",
"    =>  55555555        55555555",
" #$%;2  55555555        55555555",
" :<<25O 55555555        55555555",
" OO -5@ 55555555        55555555",
"    &1  55555555        55555555",
"        55555555        55555555",
"        55555555        55555555",
"55555555        55555555        ",
"55555555        55555555        ",
"55555555        55555555        ",
"55555555        55555555        ",
"55555555        55555555        ",
"55555555        55555555        ",
"55555555        55555555        ",
"55555555        55555555        ",
"        55555555        55555555",
"        55555555        55555555",
"        55555555        55555555",
"        55555555        55555555",
"        55555555        55555555",
"        55555555        55555555",
"        55555555        55555555",
"        55555555        55555555",
"55555555        55555555        ",
"55555555        55555555        ",
"55555555        55555555        ",
"55555555        55555555        ",
"55555555        55555555        ",
"55555555        55555555        ",
"55555555        55555555        ",
"55555555        55555555        "
};
